<svg xmlns="http://www.w3.org/2000/svg" xmlns:xlink="http://www.w3.org/1999/xlink" xmlns:serif="http://www.serif.com/" width="77.98560860845453" height="132.08632982466372" version="1.1" xml:space="preserve" style="fill-rule: evenodd; clip-rule: evenodd; stroke-linejoin: round; stroke-miterlimit: 1.41421;"><rect id="backgroundrect" width="100%" height="100%" x="0" y="0" fill="none" stroke="none" class="selected" style=""/>
    
    
<g class="currentLayer" style=""><title>Layer 1</title><rect id="logo_vertical_dark" x="107.9136734008789" y="18.705036163330078" width="238.41726779937744" height="198.27338218688965" style="fill:none;" class=""/><g id="svg_1" class="">
        <g id="svg_2">
            <path d="M47.39023449707031,55.69401370239258 c-0.5720000000000001,-1.059 -1.357,-2.199 -2.109,-1.8530000000000002 c-1.099,0.503 -2.6,3.758 -1.8860000000000001,4.176 c0.7130000000000001,0.42700000000000005 4.565,-1.267 3.995,-2.323 " style="fill:#ffffff;fill-rule:nonzero;" id="svg_3"/>
            <path d="M44.65423449707032,34.75901370239258 c-8.575,-0.014000000000000002 -16.781,3.539 -22.638,9.802 l0,-43.058 l-18.127,23.106 l0,70.3 l18.127,0 l0,-28.255 c1.35,1.439 6.292,3.972 10.429,-0.03300000000000001 c3.283,-3.178 2.875,-8.146 2.875,-8.146 c0,0 -1.57,8.146 -7.031,8.095 c-8.633000000000001,-0.07700000000000001 -6.78,-6.852 -3.123,-12.461 c4.745,-7.285 9.474,-5.834 14.648,-5.927 c6.118,-0.10900000000000001 10.362,2.466 10.989,2.841 c0.6210000000000001,0.36700000000000005 8.829,0.23500000000000001 13.201,0.29100000000000004 c3.645,0.05100000000000001 2.783,1.6800000000000002 2.033,8.348 c-0.7470000000000001,6.667 -4.9,7.565 -13.915,11.014 c-6.526,2.496 -7.965,13.691 -20.071,22.479 c3.968,1.7600000000000002 8.262,2.6670000000000003 12.603,2.6630000000000003 c17.052,0 30.881,-13.671 30.881,-30.532 c0,-16.858 -13.829,-30.527 -30.881,-30.527 " style="fill:#ffffff;fill-rule:nonzero;" id="svg_4"/>
        </g>
        <g id="svg_5">
            <path d="M12.579738562070304,119.87580532239258 c1.53980433,-0.3796777800000001 2.5311852,-1.30777902 2.5311852,-3.01632903 c0,-2.36243952 -1.6241771699999998,-3.7756845899999996 -5.92719201,-3.7756845899999996 l-5.29439571,0 l0,14.765247 l6.1170309000000005,0 c4.218642,0 5.9060988000000005,-1.81401606 5.9060988000000005,-4.26082842 c0,-1.9827617400000002 -1.0546605,-3.2694475499999998 -3.33272718,-3.7124049599999998 zm-3.1639815000000002,-4.23973521 c1.53980433,0 2.42571915,0.40077099000000005 2.42571915,1.64527038 c0,1.24449939 -0.9070080300000001,1.7296432200000003 -2.06713458,1.7296432200000003 l-2.65774446,0 l0,-3.3749136 l2.29915989,0 zm0.71716914,9.66069018 l-3.01632903,0 l0,-4.0077099 l2.97414261,0 c1.1390333400000001,0 2.48899878,0.33749136 2.48899878,2.06713458 c0,1.3499654399999998 -1.03356729,1.9405753199999998 -2.44681236,1.9405753199999998 z" style="fill:#ffffff;fill-rule:nonzero;" stroke-width="0" id="svg_6"/>
            <path d="M28.969162732070316,113.08379170239257 l-9.85052907,0 l0,14.765247 l10.040367960000001,0 l0,-2.65774446 l-6.81310683,0 l0,-3.5858457 l6.18031053,0 l0,-2.57337162 l-6.18031053,0 l0,-3.29054076 l6.62326794,0 l0,-2.65774446 z" style="fill:#ffffff;fill-rule:nonzero;" stroke-width="0" id="svg_7"/>
            <path d="M36.03538808207031,113.08379170239257 l-3.22726113,0 l0,14.765247 l9.597410550000001,0 l0,-2.7632105099999995 l-6.37014942,0 l0,-12.00203649 z" style="fill:#ffffff;fill-rule:nonzero;" stroke-width="0" id="svg_8"/>
            <path d="M54.32320115207031,127.84903870239259 l3.7967777999999996,0 l-5.75844633,-8.75368215 l5.23111608,-6.011564849999999 l-3.7967777999999996,0 l-5.46314139,6.45452226 l0,-6.45452226 l-3.22726113,0 l0,14.765247 l3.22726113,0 l0,-4.4295741 l1.8351092700000002,-2.06713458 l4.15536237,6.496708679999999 z" style="fill:#ffffff;fill-rule:nonzero;" stroke-width="0" id="svg_9"/>
            <path d="M69.51031235207032,127.84903870239259 l3.41710002,0 l-4.78815867,-14.765247 l-4.04989632,0 l-4.78815867,14.765247 l3.29054076,0 l0.6749827199999999,-2.3202531 l5.56860744,0 l0.6749827199999999,2.3202531 zm-3.45928644,-12.29734143 l2.06713458,7.403716709999999 l-4.13426916,0 l2.06713458,-7.403716709999999 z" style="fill:#ffffff;fill-rule:nonzero;" stroke-width="0" id="svg_10"/>
        </g>
    </g></g></svg>