<?xml version="1.0" encoding="UTF-8" standalone="no"?>
<!DOCTYPE svg PUBLIC "-//W3C//DTD SVG 1.1//EN" "http://www.w3.org/Graphics/SVG/1.1/DTD/svg11.dtd">
<svg version="1.1" xmlns="http://www.w3.org/2000/svg" xmlns:xlink="http://www.w3.org/1999/xlink" preserveAspectRatio="xMidYMid meet" viewBox="0 0 640 640" width="640" height="640"><defs><path d="M36.91 485.01L36.91 458.4L55.46 458.4L55.46 448.79L36.91 448.79L36.91 433.77L56.34 433.77L56.34 424.25L26.01 424.25L26.01 485.01L36.91 485.01Z" id="g5JjS0z0V"></path><path d="M72.54 454.48C72.54 443.78 77.06 432.79 87.85 432.79C98.75 432.79 103.17 443.78 103.17 454.48C103.17 465.47 99.04 476.56 87.85 476.56C76.66 476.56 72.54 465.47 72.54 454.48M87.85 486.09C105.13 486.09 114.65 472.83 114.65 454.48C114.65 436.12 105.03 423.17 87.85 423.17C70.48 423.17 61.06 435.83 61.06 454.48C61.06 473.13 70.28 486.09 87.85 486.09Z" id="c2KZWpwFC"></path><path d="M133.3 485.01L133.3 439.56L133.5 439.56L154.4 485.01L167.75 485.01L167.75 424.25L157.25 424.25L157.25 469.69L157.15 469.69L136.25 424.25L122.8 424.25L122.8 485.01L133.3 485.01Z" id="d1kcSDXWky"></path><path d="M195.63 433.77C204.76 433.77 213.69 441.33 213.69 454.58C213.69 467.83 204.86 475.39 195.63 475.39C195.23 475.39 193.2 475.39 189.55 475.39L189.55 433.77C193.2 433.77 195.23 433.77 195.63 433.77ZM193.47 485.01C210.26 485.01 225.08 478.72 225.08 454.58C225.08 430.43 210.26 424.15 193.47 424.15C192.48 424.15 187.5 424.15 178.55 424.15L178.55 485.01C187.5 485.01 192.48 485.01 193.47 485.01Z" id="b3wmsOH29I"></path><path d="M239.51 485.01L244.32 471.07L266.5 471.07L271.21 485.01L283.39 485.01L261.89 424.15L249.52 424.15L228.12 485.01L239.51 485.01ZM247.36 461.55L255.31 436.42L255.51 436.42L263.36 461.55L247.36 461.55Z" id="e3WHT23uXw"></path><path d="M323.34 485.01L323.34 475.48L296.83 475.48L322.75 434.16L322.75 424.25L286.43 424.25L286.43 433.77L311.07 433.77L285.45 475.09L285.45 485.01L323.34 485.01Z" id="b29Mj7oIfy"></path><path d="M341.2 424.25C341.2 424.25 341.2 424.25 341.2 424.25C341.2 460.76 341.2 481.05 341.2 485.1C341.2 485.1 341.2 485.1 341.2 485.1C334.61 485.1 330.94 485.1 330.21 485.1C330.21 485.1 330.21 485.1 330.21 485.1C330.21 448.59 330.21 428.3 330.21 424.25C330.21 424.25 330.21 424.25 330.21 424.25C336.8 424.25 340.47 424.25 341.2 424.25Z" id="d76zQB0JZd"></path><path d="M360.34 454.48C360.34 443.78 364.86 432.79 375.66 432.79C386.55 432.79 390.97 443.78 390.97 454.48C390.97 465.47 386.85 476.56 375.66 476.56C364.47 476.56 360.34 465.47 360.34 454.48M375.66 486.09C392.93 486.09 402.45 472.83 402.45 454.48C402.45 436.12 392.83 423.17 375.66 423.17C358.28 423.17 348.86 435.83 348.86 454.48C348.86 473.13 358.09 486.09 375.66 486.09Z" id="a2a9wGIWqO"></path><path d="M421.01 485.01L421.01 439.56L421.2 439.56L442.11 485.01L455.56 485.01L455.56 424.25L445.06 424.25L445.06 469.69L444.86 469.69L424.05 424.25L410.6 424.25L410.6 485.01L421.01 485.01Z" id="cDJb79YK9"></path><path d="M498.75 485.01L498.75 475.48L477.25 475.48L477.25 458.4L496.79 458.4L496.79 448.79L477.25 448.79L477.25 433.77L498.55 433.77L498.55 424.25L466.26 424.25L466.26 485.01L498.75 485.01Z" id="caTyEaowU"></path><path d="M45.15 560.49C52.02 560.49 64.39 558.23 64.39 542.92C64.39 535.46 59.29 529.87 51.83 529.08C51.83 529.06 51.83 528.9 51.83 528.88C58.31 527.61 62.72 522.5 62.72 515.34C62.72 501.99 52.12 499.73 45.06 499.73C43.79 499.73 37.44 499.73 26.01 499.73L26.01 560.49C37.5 560.49 43.88 560.49 45.15 560.49ZM41.13 509.25C46.13 509.25 51.73 509.74 51.73 516.81C51.73 523.09 46.04 524.17 41.42 524.17C41.12 524.17 39.62 524.17 36.91 524.17L36.91 509.25C39.44 509.25 40.85 509.25 41.13 509.25ZM42.11 533.3C47.61 533.3 53.4 534.48 53.4 542.43C53.4 549.5 47.21 550.87 42.11 550.87C41.76 550.87 40.03 550.87 36.91 550.87L36.91 533.3C40.03 533.3 41.76 533.3 42.11 533.3Z" id="b2nEZXZIc6"></path><path d="M82.45 560.49L82.45 535.26C84.57 535.26 85.75 535.26 85.99 535.26C90.6 535.26 91.98 537.03 93.55 541.55C93.98 542.81 96.18 549.12 100.12 560.49L112.29 560.49C107.05 546.24 104.14 538.32 103.56 536.74C102.48 534.09 100.71 530.75 97.77 530.45C97.77 530.43 97.77 530.28 97.77 530.26C104.74 529.18 109.06 523.29 109.06 516.12C109.06 499.24 95.02 499.63 83.24 499.63C82.46 499.63 78.57 499.63 71.56 499.63L71.56 560.49L82.45 560.49ZM86.09 509.25C91.58 509.25 97.67 509.84 97.67 517.2C97.67 524.76 91.48 525.64 86.09 525.64C85.84 525.64 84.63 525.64 82.45 525.64L82.45 509.25C84.63 509.25 85.84 509.25 86.09 509.25Z" id="c1s4Moyjik"></path><path d="M118.58 538.5C118.58 554.8 126.92 561.47 140.86 561.47C154.9 561.47 163.14 554.8 163.14 538.5C163.14 535.91 163.14 522.95 163.14 499.63L152.15 499.63C152.15 520.72 152.15 532.43 152.15 534.77C152.15 545.18 149.2 551.95 140.76 551.95C132.42 551.95 129.37 545.18 129.37 534.77C129.37 532.43 129.37 520.72 129.37 499.63L118.38 499.63L118.38 538.5C118.49 538.5 118.55 538.5 118.58 538.5Z" id="a5xaZFKBb"></path><path d="M184.15 560.49L184.15 515.04L184.25 515.04L205.15 560.49L218.6 560.49L218.6 499.63L208.1 499.63L208.1 545.18L207.9 545.18L187.09 499.63L173.64 499.63L173.64 560.49L184.15 560.49Z" id="c9H7fHyHiq"></path><path d="M238.13 529.87C238.13 519.17 242.55 508.17 253.45 508.17C264.34 508.17 268.76 519.17 268.76 529.87C268.76 540.86 264.64 551.95 253.45 551.95C242.26 551.95 238.13 540.86 238.13 529.87M253.45 561.47C270.72 561.47 280.25 548.22 280.25 529.87C280.25 511.51 270.63 498.55 253.45 498.55C236.07 498.65 226.65 511.21 226.65 529.87C226.65 548.52 235.88 561.47 253.45 561.47Z" id="dKwsQBEx"></path><path d="M317.64 560.49L317.64 532.22L317.74 532.22L337.37 560.49L351.71 560.49L328.34 528.29L350.82 499.63L337.37 499.63L317.64 525.84L317.64 499.63L306.65 499.63L306.65 560.49L317.64 560.49Z" id="dxUV8RnPy"></path><path d="M389.99 560.49L389.99 550.87L368.49 550.87L368.49 533.79L388.02 533.79L388.02 524.27L368.49 524.27L368.49 509.25L389.79 509.25L389.79 499.63L357.5 499.63L357.5 560.49L389.99 560.49Z" id="dacl4tT7P"></path><path d="M417.08 498.65C407.46 498.65 397.94 503.66 397.94 517.2C397.94 537.33 421.89 532.52 421.89 544.1C421.89 549.6 416.29 551.95 412.17 551.95C407.85 551.95 403.53 550.48 399.8 548.22C399.71 549.32 398.92 558.12 398.82 559.21C404.22 560.69 406.87 561.57 412.86 561.57C423.95 561.57 433.37 556.56 433.37 543.21C433.37 522.8 409.42 527.31 409.42 516.71C409.42 510.13 414.33 508.27 418.06 508.27C421.89 508.27 425.72 509.25 429.15 510.92C429.22 510.25 429.55 506.88 430.13 500.81C424.57 499.37 420.22 498.65 417.08 498.65Z" id="g6A4SM7SJE"></path><path d="M459.19 498.65C449.57 498.65 440.05 503.66 440.05 517.2C440.05 537.33 464 532.52 464 544.1C464 549.6 458.4 551.95 454.28 551.95C449.96 551.95 445.64 550.48 441.91 548.22C441.82 549.32 441.03 558.12 440.93 559.21C446.33 560.69 448.98 561.57 454.97 561.57C466.06 561.57 475.48 556.56 475.48 543.21C475.48 522.8 451.53 527.31 451.53 516.71C451.53 510.13 456.34 508.27 460.17 508.27C464 508.27 467.83 509.25 471.26 510.92C471.33 510.25 471.66 506.88 472.25 500.81C466.68 499.37 462.33 498.65 459.19 498.65Z" id="j3JmZmmmi"></path><path d="M516.32 560.49L516.32 550.87L495.02 550.87L495.02 499.63L484.02 499.63L484.02 560.49L516.32 560.49Z" id="a385g52TT"></path><path d="M554.31 560.49L554.31 550.87L532.81 550.87L532.81 533.79L552.34 533.79L552.34 524.27L532.81 524.27L532.81 509.25L554.11 509.25L554.11 499.63L521.91 499.63L521.91 560.49L554.31 560.49Z" id="nhOoYFlmL"></path><path d="M574.13 560.49L574.13 535.26C576.26 535.26 577.43 535.26 577.67 535.26C582.28 535.26 583.66 537.03 585.23 541.55C585.67 542.81 587.86 549.12 591.8 560.49L603.98 560.49C598.73 546.24 595.82 538.32 595.24 536.74C594.16 534.09 592.39 530.75 589.45 530.45C589.45 530.43 589.45 530.28 589.45 530.26C596.42 529.18 600.74 523.29 600.74 516.12C600.74 499.24 586.7 499.63 574.92 499.63C574.13 499.63 570.17 499.63 563.04 499.63L563.04 560.49L574.13 560.49ZM577.77 509.25C583.26 509.25 589.35 509.84 589.35 517.2C589.35 524.76 583.17 525.64 577.77 525.64C577.52 525.64 576.31 525.64 574.13 525.64L574.13 509.25C576.31 509.25 577.52 509.25 577.77 509.25Z" id="cgHsDBUEU"></path><path d="M175.21 70.77C175.21 70.77 175.21 70.77 175.21 70.77C175.21 99.81 175.21 115.94 175.21 119.17C175.21 119.17 175.21 119.17 175.21 119.17C84.99 119.17 34.86 119.17 24.83 119.17C24.83 119.17 24.83 119.17 24.83 119.17C24.83 90.13 24.83 74 24.83 70.77C24.83 70.77 24.83 70.77 24.83 70.77C115.06 70.77 165.19 70.77 175.21 70.77Z" id="epP0MHKi7"></path><path d="M175.21 194.94C175.21 194.94 175.21 194.94 175.21 194.94C175.21 223.98 175.21 240.11 175.21 243.34C175.21 243.34 175.21 243.34 175.21 243.34C84.99 243.34 34.86 243.34 24.83 243.34C24.83 243.34 24.83 243.34 24.83 243.34C24.83 214.3 24.83 198.17 24.83 194.94C24.83 194.94 24.83 194.94 24.83 194.94C115.06 194.94 165.19 194.94 175.21 194.94Z" id="dafPjMRev"></path><path d="M293.6 194.94C342.58 194.94 382.72 234.99 382.72 284.07C382.72 333.06 342.67 373.2 293.6 373.2C289.17 373.2 267.05 373.2 227.24 373.2L227.24 324.91C266.99 324.91 289.08 324.91 293.5 324.91C315.98 324.91 334.33 306.55 334.33 284.07C334.33 261.6 315.98 243.24 293.5 243.24C289.08 243.24 266.99 243.24 227.24 243.24L227.24 194.94C267.05 194.94 289.17 194.94 293.6 194.94Z" id="e1ECV6Qw1F"></path><path d="M447.02 221.94L600.83 373.1L533.2 373.1L406.77 248.83L406.77 194.94L533.2 70.77L600.83 70.77L447.02 221.94Z" id="b1Ml3srLeN"></path></defs><g><g><g><use xlink:href="#g5JjS0z0V" opacity="1" fill="#ffffff" fill-opacity="1"></use><g><use xlink:href="#g5JjS0z0V" opacity="1" fill-opacity="0" stroke="#000000" stroke-width="1" stroke-opacity="0"></use></g></g><g><use xlink:href="#c2KZWpwFC" opacity="1" fill="#ffffff" fill-opacity="1"></use><g><use xlink:href="#c2KZWpwFC" opacity="1" fill-opacity="0" stroke="#000000" stroke-width="1" stroke-opacity="0"></use></g></g><g><use xlink:href="#d1kcSDXWky" opacity="1" fill="#ffffff" fill-opacity="1"></use><g><use xlink:href="#d1kcSDXWky" opacity="1" fill-opacity="0" stroke="#000000" stroke-width="1" stroke-opacity="0"></use></g></g><g><use xlink:href="#b3wmsOH29I" opacity="1" fill="#ffffff" fill-opacity="1"></use><g><use xlink:href="#b3wmsOH29I" opacity="1" fill-opacity="0" stroke="#000000" stroke-width="1" stroke-opacity="0"></use></g></g><g><use xlink:href="#e3WHT23uXw" opacity="1" fill="#ffffff" fill-opacity="1"></use><g><use xlink:href="#e3WHT23uXw" opacity="1" fill-opacity="0" stroke="#000000" stroke-width="1" stroke-opacity="0"></use></g></g><g><use xlink:href="#b29Mj7oIfy" opacity="1" fill="#ffffff" fill-opacity="1"></use><g><use xlink:href="#b29Mj7oIfy" opacity="1" fill-opacity="0" stroke="#000000" stroke-width="1" stroke-opacity="0"></use></g></g><g><use xlink:href="#d76zQB0JZd" opacity="1" fill="#ffffff" fill-opacity="1"></use><g><use xlink:href="#d76zQB0JZd" opacity="1" fill-opacity="0" stroke="#000000" stroke-width="1" stroke-opacity="0"></use></g></g><g><use xlink:href="#a2a9wGIWqO" opacity="1" fill="#ffffff" fill-opacity="1"></use><g><use xlink:href="#a2a9wGIWqO" opacity="1" fill-opacity="0" stroke="#000000" stroke-width="1" stroke-opacity="0"></use></g></g><g><use xlink:href="#cDJb79YK9" opacity="1" fill="#ffffff" fill-opacity="1"></use><g><use xlink:href="#cDJb79YK9" opacity="1" fill-opacity="0" stroke="#000000" stroke-width="1" stroke-opacity="0"></use></g></g><g><use xlink:href="#caTyEaowU" opacity="1" fill="#ffffff" fill-opacity="1"></use><g><use xlink:href="#caTyEaowU" opacity="1" fill-opacity="0" stroke="#000000" stroke-width="1" stroke-opacity="0"></use></g></g><g><use xlink:href="#b2nEZXZIc6" opacity="1" fill="#ffffff" fill-opacity="1"></use><g><use xlink:href="#b2nEZXZIc6" opacity="1" fill-opacity="0" stroke="#000000" stroke-width="1" stroke-opacity="0"></use></g></g><g><use xlink:href="#c1s4Moyjik" opacity="1" fill="#ffffff" fill-opacity="1"></use><g><use xlink:href="#c1s4Moyjik" opacity="1" fill-opacity="0" stroke="#000000" stroke-width="1" stroke-opacity="0"></use></g></g><g><use xlink:href="#a5xaZFKBb" opacity="1" fill="#ffffff" fill-opacity="1"></use><g><use xlink:href="#a5xaZFKBb" opacity="1" fill-opacity="0" stroke="#000000" stroke-width="1" stroke-opacity="0"></use></g></g><g><use xlink:href="#c9H7fHyHiq" opacity="1" fill="#ffffff" fill-opacity="1"></use><g><use xlink:href="#c9H7fHyHiq" opacity="1" fill-opacity="0" stroke="#000000" stroke-width="1" stroke-opacity="0"></use></g></g><g><use xlink:href="#dKwsQBEx" opacity="1" fill="#ffffff" fill-opacity="1"></use><g><use xlink:href="#dKwsQBEx" opacity="1" fill-opacity="0" stroke="#000000" stroke-width="1" stroke-opacity="0"></use></g></g><g><use xlink:href="#dxUV8RnPy" opacity="1" fill="#ffffff" fill-opacity="1"></use><g><use xlink:href="#dxUV8RnPy" opacity="1" fill-opacity="0" stroke="#000000" stroke-width="1" stroke-opacity="0"></use></g></g><g><use xlink:href="#dacl4tT7P" opacity="1" fill="#ffffff" fill-opacity="1"></use><g><use xlink:href="#dacl4tT7P" opacity="1" fill-opacity="0" stroke="#000000" stroke-width="1" stroke-opacity="0"></use></g></g><g><use xlink:href="#g6A4SM7SJE" opacity="1" fill="#ffffff" fill-opacity="1"></use><g><use xlink:href="#g6A4SM7SJE" opacity="1" fill-opacity="0" stroke="#000000" stroke-width="1" stroke-opacity="0"></use></g></g><g><use xlink:href="#j3JmZmmmi" opacity="1" fill="#ffffff" fill-opacity="1"></use><g><use xlink:href="#j3JmZmmmi" opacity="1" fill-opacity="0" stroke="#000000" stroke-width="1" stroke-opacity="0"></use></g></g><g><use xlink:href="#a385g52TT" opacity="1" fill="#ffffff" fill-opacity="1"></use><g><use xlink:href="#a385g52TT" opacity="1" fill-opacity="0" stroke="#000000" stroke-width="1" stroke-opacity="0"></use></g></g><g><use xlink:href="#nhOoYFlmL" opacity="1" fill="#ffffff" fill-opacity="1"></use><g><use xlink:href="#nhOoYFlmL" opacity="1" fill-opacity="0" stroke="#000000" stroke-width="1" stroke-opacity="0"></use></g></g><g><use xlink:href="#cgHsDBUEU" opacity="1" fill="#ffffff" fill-opacity="1"></use><g><use xlink:href="#cgHsDBUEU" opacity="1" fill-opacity="0" stroke="#000000" stroke-width="1" stroke-opacity="0"></use></g></g><g><use xlink:href="#epP0MHKi7" opacity="1" fill="#ffffff" fill-opacity="1"></use><g><use xlink:href="#epP0MHKi7" opacity="1" fill-opacity="0" stroke="#000000" stroke-width="1" stroke-opacity="0"></use></g></g><g><use xlink:href="#dafPjMRev" opacity="1" fill="#ffffff" fill-opacity="1"></use><g><use xlink:href="#dafPjMRev" opacity="1" fill-opacity="0" stroke="#000000" stroke-width="1" stroke-opacity="0"></use></g></g><g><use xlink:href="#e1ECV6Qw1F" opacity="1" fill="#ffffff" fill-opacity="1"></use><g><use xlink:href="#e1ECV6Qw1F" opacity="1" fill-opacity="0" stroke="#000000" stroke-width="1" stroke-opacity="0"></use></g></g><g><use xlink:href="#b1Ml3srLeN" opacity="1" fill="#ffffff" fill-opacity="1"></use><g><use xlink:href="#b1Ml3srLeN" opacity="1" fill-opacity="0" stroke="#000000" stroke-width="1" stroke-opacity="0"></use></g></g></g></g></svg>