<?xml version="1.0" encoding="UTF-8" standalone="no"?>
<!DOCTYPE svg PUBLIC "-//W3C//DTD SVG 1.1//EN" "http://www.w3.org/Graphics/SVG/1.1/DTD/svg11.dtd">
<svg version="1.1" xmlns="http://www.w3.org/2000/svg" xmlns:xlink="http://www.w3.org/1999/xlink" preserveAspectRatio="xMidYMid meet" viewBox="0 0 100 60" width="100" height="60"><defs><path d="M36.21 40.04C36.1 39.45 34.11 33.96 43.55 29.99C53 26.01 41.27 23.9 40.25 23.98C39.23 24.06 26.16 30.04 26.91 39.45C27.26 50.98 40.96 50.19 40.96 50.19C40.96 50.19 47.96 50.63 55.13 45.35C62.29 40.08 55.54 44.88 55.54 44.88C54.82 44.03 52.3 41.04 51.94 40.61C48.79 40.5 40.23 47.13 36.21 40.04Z" id="c14onxwv4j"></path><path d="M36.21 40.04C36.1 39.45 34.11 33.96 43.55 29.99C53 26.01 41.27 23.9 40.25 23.98C39.23 24.06 26.16 30.04 26.91 39.45C27.26 50.98 40.96 50.19 40.96 50.19C40.96 50.19 47.96 50.63 55.13 45.35C62.29 40.08 55.54 44.88 55.54 44.88C54.82 44.03 52.3 41.04 51.94 40.61C48.79 40.5 40.23 47.13 36.21 40.04Z" id="f4XSUypq"></path><path d="M85.71 13.47C85.71 13.47 86.75 13.42 90.72 12.94C94.7 12.47 96.39 6.02 96.39 6.02C94.74 6.02 81.51 6.02 79.86 6.02C79.86 6.02 67.01 7.51 65.87 18.37C65.71 26.72 76.71 32.96 77.74 35.56C78.96 37.01 80.79 44.41 66.93 43.35C71.73 49.68 72.13 50.2 72.13 50.2C72.13 50.2 74.35 50.48 80.45 50.2C91.24 47.48 92.65 41.87 93.32 36.91C92.89 31.72 88.15 28.31 87.71 27.53C87.28 26.74 80.08 21.56 80.51 18.37C80.47 14.91 84.67 14.45 85.71 13.47Z" id="d3W5b3i6SL"></path><path d="M85.71 13.47C85.71 13.47 86.75 13.42 90.72 12.94C94.7 12.47 96.39 6.02 96.39 6.02C94.74 6.02 81.51 6.02 79.86 6.02C79.86 6.02 67.01 7.51 65.87 18.37C65.71 26.72 76.71 32.96 77.74 35.56C78.96 37.01 80.79 44.41 66.93 43.35C71.73 49.68 72.13 50.2 72.13 50.2C72.13 50.2 74.35 50.48 80.45 50.2C91.24 47.48 92.65 41.87 93.32 36.91C92.89 31.72 88.15 28.31 87.71 27.53C87.28 26.74 80.08 21.56 80.51 18.37C80.47 14.91 84.67 14.45 85.71 13.47Z" id="ebp4uesYe"></path><path d="M96.34 15.98C96.35 15.97 96.36 15.96 96.36 15.95C96.35 15.95 96.34 15.95 96.33 15.95C96.32 15.96 96.3 15.97 96.3 15.98C96.31 15.98 96.32 15.98 96.34 15.98ZM84.73 22.06C84.86 22.19 85.5 22.83 86.67 23.99C92.45 19.18 95.66 16.51 96.3 15.98C96.17 15.97 96.04 15.96 95.91 15.95C91.94 15.87 88.63 17.08 86.62 18.1C86.24 18.37 85.84 18.65 85.45 18.94C84.04 20.76 84.65 21.93 84.73 22.06ZM52.27 46.91C52.27 46.91 58.67 43.17 66.63 38.06C66.85 37.74 67.35 37.34 68.28 36.82C72.25 34.57 71.87 32.58 71.72 32.14C71.59 31.97 70.93 31.17 69.75 29.73C59.5 35.95 53.09 39.85 50.53 41.4C50.7 41.95 52.09 46.36 52.27 46.91Z" id="agh8di7nK"></path><path d="M96.34 15.98C96.35 15.97 96.36 15.96 96.36 15.95C96.35 15.95 96.34 15.95 96.33 15.95C96.32 15.96 96.3 15.97 96.3 15.98C96.31 15.98 96.32 15.98 96.34 15.98ZM84.73 22.06C84.86 22.19 85.5 22.83 86.67 23.99C92.45 19.18 95.66 16.51 96.3 15.98C96.17 15.97 96.04 15.96 95.91 15.95C91.94 15.87 88.63 17.08 86.62 18.1C86.24 18.37 85.84 18.65 85.45 18.94C84.04 20.76 84.65 21.93 84.73 22.06ZM52.27 46.91C52.27 46.91 58.67 43.17 66.63 38.06C66.85 37.74 67.35 37.34 68.28 36.82C72.25 34.57 71.87 32.58 71.72 32.14C71.59 31.97 70.93 31.17 69.75 29.73C59.5 35.95 53.09 39.85 50.53 41.4C50.7 41.95 52.09 46.36 52.27 46.91Z" id="b50AwoC4R5"></path><path d="M56.19 13.47C57.37 13.47 61.64 11.09 62.39 6.02C57.9 6.02 51.23 6.04 51.23 6.04C51.23 6.04 38.89 7.57 38.42 18.2C39.4 24.93 43.3 30.42 43.3 30.42C44.51 31.97 54.17 44.39 55.38 45.94C55.38 45.94 58.29 50.19 60.5 50.19C62.86 50.23 67.05 50.19 67.05 50.19C67.05 50.19 50.89 28.25 49.12 23.77C47.55 20.93 48.16 19.69 47.92 18.67C49.57 17.63 48.12 12.88 56.19 13.47Z" id="a2pE1BIOOi"></path><path d="M56.19 13.47C57.37 13.47 61.64 11.09 62.39 6.02C57.9 6.02 51.23 6.04 51.23 6.04C51.23 6.04 38.89 7.57 38.42 18.2C39.4 24.93 43.3 30.42 43.3 30.42C44.51 31.97 54.17 44.39 55.38 45.94C55.38 45.94 58.29 50.19 60.5 50.19C62.86 50.23 67.05 50.19 67.05 50.19C67.05 50.19 50.89 28.25 49.12 23.77C47.55 20.93 48.16 19.69 47.92 18.67C49.57 17.63 48.12 12.88 56.19 13.47Z" id="a1tPhiVlrB"></path><path d="M27.11 6.04C21.54 6.04 18.45 6.04 17.83 6.04C12.63 6.04 12.52 8.75 12.52 8.75C12.52 8.75 12.51 8.75 12.51 8.75C12.36 9.68 11.18 17.15 11.03 18.08C17.83 15.53 21.61 14.11 22.36 13.83C22.43 13.8 22.5 13.77 22.57 13.73C25.05 12.61 26.03 11.44 26.41 10.61C26.46 10.3 26.69 8.78 27.11 6.04Z" id="f1DkAzXHFO"></path><path d="M27.11 6.04C21.54 6.04 18.45 6.04 17.83 6.04C12.63 6.04 12.52 8.75 12.52 8.75C12.52 8.75 12.51 8.75 12.51 8.75C12.36 9.68 11.18 17.15 11.03 18.08C17.83 15.53 21.61 14.11 22.36 13.83C22.43 13.8 22.5 13.77 22.57 13.73C25.05 12.61 26.03 11.44 26.41 10.61C26.46 10.3 26.69 8.78 27.11 6.04Z" id="b4wk0xR8wm"></path><path d="M25.79 16.31C25.79 16.31 24.32 16.56 22.34 17.15C18.18 18.41 10.79 20.56 10.79 20.56C10.48 22.53 8.9 32.37 6.07 50.08C11.59 50.08 14.66 50.08 15.28 50.08C20.47 50.08 20.59 47.6 20.59 47.6C20.6 47.6 20.61 47.61 20.64 47.61C23.73 28.83 25.44 18.4 25.79 16.31Z" id="cfcTdCeVt"></path><path d="M25.79 16.31C25.79 16.31 24.32 16.56 22.34 17.15C18.18 18.41 10.79 20.56 10.79 20.56C10.48 22.53 8.9 32.37 6.07 50.08C11.59 50.08 14.66 50.08 15.28 50.08C20.47 50.08 20.59 47.6 20.59 47.6C20.6 47.6 20.61 47.61 20.64 47.61C23.73 28.83 25.44 18.4 25.79 16.31Z" id="em9w75dzp"></path><path d="M36.21 40.04C36.1 39.45 34.11 33.96 43.55 29.99C53 26.01 41.27 23.9 40.25 23.98C39.23 24.06 26.16 30.04 26.91 39.45C27.26 50.98 40.96 50.19 40.96 50.19C40.96 50.19 47.96 50.63 55.13 45.35C62.29 40.08 55.54 44.88 55.54 44.88C54.82 44.03 52.3 41.04 51.94 40.61C48.79 40.5 40.23 47.13 36.21 40.04Z" id="brM15oN0y"></path><path d="M36.21 40.04C36.1 39.45 34.11 33.96 43.55 29.99C53 26.01 41.27 23.9 40.25 23.98C39.23 24.06 26.16 30.04 26.91 39.45C27.26 50.98 40.96 50.19 40.96 50.19C40.96 50.19 47.96 50.63 55.13 45.35C62.29 40.08 55.54 44.88 55.54 44.88C54.82 44.03 52.3 41.04 51.94 40.61C48.79 40.5 40.23 47.13 36.21 40.04Z" id="bWOB1gici"></path><path d="M85.71 13.47C85.71 13.47 86.75 13.42 90.72 12.94C94.7 12.47 96.39 6.02 96.39 6.02C94.74 6.02 81.51 6.02 79.86 6.02C79.86 6.02 67.01 7.51 65.87 18.37C65.71 26.72 76.71 32.96 77.74 35.56C78.96 37.01 80.79 44.41 66.93 43.35C71.73 49.68 72.13 50.2 72.13 50.2C72.13 50.2 74.35 50.48 80.45 50.2C91.24 47.48 92.65 41.87 93.32 36.91C92.89 31.72 88.15 28.31 87.71 27.53C87.28 26.74 80.08 21.56 80.51 18.37C80.47 14.91 84.67 14.45 85.71 13.47Z" id="a2c1jnMK25"></path><path d="M85.71 13.47C85.71 13.47 86.75 13.42 90.72 12.94C94.7 12.47 96.39 6.02 96.39 6.02C94.74 6.02 81.51 6.02 79.86 6.02C79.86 6.02 67.01 7.51 65.87 18.37C65.71 26.72 76.71 32.96 77.74 35.56C78.96 37.01 80.79 44.41 66.93 43.35C71.73 49.68 72.13 50.2 72.13 50.2C72.13 50.2 74.35 50.48 80.45 50.2C91.24 47.48 92.65 41.87 93.32 36.91C92.89 31.72 88.15 28.31 87.71 27.53C87.28 26.74 80.08 21.56 80.51 18.37C80.47 14.91 84.67 14.45 85.71 13.47Z" id="a380IeChW"></path><path d="M96.34 15.98C96.35 15.97 96.36 15.96 96.36 15.95C96.35 15.95 96.34 15.95 96.33 15.95C96.32 15.96 96.3 15.97 96.3 15.98C96.31 15.98 96.32 15.98 96.34 15.98ZM84.73 22.06C84.86 22.19 85.5 22.83 86.67 23.99C92.45 19.18 95.66 16.51 96.3 15.98C96.17 15.97 96.04 15.96 95.91 15.95C91.94 15.87 88.63 17.08 86.62 18.1C86.24 18.37 85.84 18.65 85.45 18.94C84.04 20.76 84.65 21.93 84.73 22.06ZM52.27 46.91C52.27 46.91 58.67 43.17 66.63 38.06C66.85 37.74 67.35 37.34 68.28 36.82C72.25 34.57 71.87 32.58 71.72 32.14C71.59 31.97 70.93 31.17 69.75 29.73C59.5 35.95 53.09 39.85 50.53 41.4C50.7 41.95 52.09 46.36 52.27 46.91Z" id="m21j9slU3Z"></path><path d="M96.34 15.98C96.35 15.97 96.36 15.96 96.36 15.95C96.35 15.95 96.34 15.95 96.33 15.95C96.32 15.96 96.3 15.97 96.3 15.98C96.31 15.98 96.32 15.98 96.34 15.98ZM84.73 22.06C84.86 22.19 85.5 22.83 86.67 23.99C92.45 19.18 95.66 16.51 96.3 15.98C96.17 15.97 96.04 15.96 95.91 15.95C91.94 15.87 88.63 17.08 86.62 18.1C86.24 18.37 85.84 18.65 85.45 18.94C84.04 20.76 84.65 21.93 84.73 22.06ZM52.27 46.91C52.27 46.91 58.67 43.17 66.63 38.06C66.85 37.74 67.35 37.34 68.28 36.82C72.25 34.57 71.87 32.58 71.72 32.14C71.59 31.97 70.93 31.17 69.75 29.73C59.5 35.95 53.09 39.85 50.53 41.4C50.7 41.95 52.09 46.36 52.27 46.91Z" id="f5Xbaa391"></path><path d="M56.19 13.47C57.37 13.47 61.64 11.09 62.39 6.02C57.9 6.02 51.23 6.04 51.23 6.04C51.23 6.04 38.89 7.57 38.42 18.2C39.4 24.93 43.3 30.42 43.3 30.42C44.51 31.97 54.17 44.39 55.38 45.94C55.38 45.94 58.29 50.19 60.5 50.19C62.86 50.23 67.05 50.19 67.05 50.19C67.05 50.19 50.89 28.25 49.12 23.77C47.55 20.93 48.16 19.69 47.92 18.67C49.57 17.63 48.12 12.88 56.19 13.47Z" id="b1iO0blxtQ"></path><path d="M56.19 13.47C57.37 13.47 61.64 11.09 62.39 6.02C57.9 6.02 51.23 6.04 51.23 6.04C51.23 6.04 38.89 7.57 38.42 18.2C39.4 24.93 43.3 30.42 43.3 30.42C44.51 31.97 54.17 44.39 55.38 45.94C55.38 45.94 58.29 50.19 60.5 50.19C62.86 50.23 67.05 50.19 67.05 50.19C67.05 50.19 50.89 28.25 49.12 23.77C47.55 20.93 48.16 19.69 47.92 18.67C49.57 17.63 48.12 12.88 56.19 13.47Z" id="b1YyDw7Y8p"></path><path d="M27.11 6.04C21.54 6.04 18.45 6.04 17.83 6.04C12.63 6.04 12.52 8.75 12.52 8.75C12.52 8.75 12.51 8.75 12.51 8.75C12.36 9.68 11.18 17.15 11.03 18.08C17.83 15.53 21.61 14.11 22.36 13.83C22.43 13.8 22.5 13.77 22.57 13.73C25.05 12.61 26.03 11.44 26.41 10.61C26.46 10.3 26.69 8.78 27.11 6.04Z" id="c5DN2oLEDy"></path><path d="M27.11 6.04C21.54 6.04 18.45 6.04 17.83 6.04C12.63 6.04 12.52 8.75 12.52 8.75C12.52 8.75 12.51 8.75 12.51 8.75C12.36 9.68 11.18 17.15 11.03 18.08C17.83 15.53 21.61 14.11 22.36 13.83C22.43 13.8 22.5 13.77 22.57 13.73C25.05 12.61 26.03 11.44 26.41 10.61C26.46 10.3 26.69 8.78 27.11 6.04Z" id="e4WS79W67N"></path><path d="M25.79 16.31C25.79 16.31 24.32 16.56 22.34 17.15C18.18 18.41 10.79 20.56 10.79 20.56C10.48 22.53 8.9 32.37 6.07 50.08C11.59 50.08 14.66 50.08 15.28 50.08C20.47 50.08 20.59 47.6 20.59 47.6C20.6 47.6 20.61 47.61 20.64 47.61C23.73 28.83 25.44 18.4 25.79 16.31Z" id="a1HFsCGGHL"></path><path d="M25.79 16.31C25.79 16.31 24.32 16.56 22.34 17.15C18.18 18.41 10.79 20.56 10.79 20.56C10.48 22.53 8.9 32.37 6.07 50.08C11.59 50.08 14.66 50.08 15.28 50.08C20.47 50.08 20.59 47.6 20.59 47.6C20.6 47.6 20.61 47.61 20.64 47.61C23.73 28.83 25.44 18.4 25.79 16.31Z" id="f1UHiTHSw"></path></defs><g><g><g><use xlink:href="#c14onxwv4j" opacity="1" fill="#000000" fill-opacity="1"></use><g><use xlink:href="#c14onxwv4j" opacity="1" fill-opacity="0" stroke="#000000" stroke-width="1" stroke-opacity="0"></use></g></g><g><use xlink:href="#f4XSUypq" opacity="1" fill="#000000" fill-opacity="0"></use><g><use xlink:href="#f4XSUypq" opacity="1" fill-opacity="0" stroke="#000000" stroke-width="1" stroke-opacity="0"></use></g></g><g><use xlink:href="#d3W5b3i6SL" opacity="1" fill="#000000" fill-opacity="1"></use><g><use xlink:href="#d3W5b3i6SL" opacity="1" fill-opacity="0" stroke="#000000" stroke-width="1" stroke-opacity="0"></use></g></g><g><use xlink:href="#ebp4uesYe" opacity="1" fill="#000000" fill-opacity="0"></use><g><use xlink:href="#ebp4uesYe" opacity="1" fill-opacity="0" stroke="#000000" stroke-width="1" stroke-opacity="0"></use></g></g><g><use xlink:href="#agh8di7nK" opacity="1" fill="#000000" fill-opacity="1"></use><g><use xlink:href="#agh8di7nK" opacity="1" fill-opacity="0" stroke="#000000" stroke-width="1" stroke-opacity="0"></use></g></g><g><use xlink:href="#b50AwoC4R5" opacity="1" fill="#000000" fill-opacity="0"></use><g><use xlink:href="#b50AwoC4R5" opacity="1" fill-opacity="0" stroke="#000000" stroke-width="1" stroke-opacity="0"></use></g></g><g><use xlink:href="#a2pE1BIOOi" opacity="1" fill="#000000" fill-opacity="1"></use><g><use xlink:href="#a2pE1BIOOi" opacity="1" fill-opacity="0" stroke="#000000" stroke-width="1" stroke-opacity="0"></use></g></g><g><use xlink:href="#a1tPhiVlrB" opacity="1" fill="#000000" fill-opacity="0"></use><g><use xlink:href="#a1tPhiVlrB" opacity="1" fill-opacity="0" stroke="#000000" stroke-width="1" stroke-opacity="0"></use></g></g><g><use xlink:href="#f1DkAzXHFO" opacity="1" fill="#000000" fill-opacity="1"></use><g><use xlink:href="#f1DkAzXHFO" opacity="1" fill-opacity="0" stroke="#000000" stroke-width="1" stroke-opacity="0"></use></g></g><g><use xlink:href="#b4wk0xR8wm" opacity="1" fill="#000000" fill-opacity="0"></use><g><use xlink:href="#b4wk0xR8wm" opacity="1" fill-opacity="0" stroke="#000000" stroke-width="1" stroke-opacity="0"></use></g></g><g><use xlink:href="#cfcTdCeVt" opacity="1" fill="#000000" fill-opacity="1"></use><g><use xlink:href="#cfcTdCeVt" opacity="1" fill-opacity="0" stroke="#000000" stroke-width="1" stroke-opacity="0"></use></g></g><g><use xlink:href="#em9w75dzp" opacity="1" fill="#000000" fill-opacity="0"></use><g><use xlink:href="#em9w75dzp" opacity="1" fill-opacity="0" stroke="#000000" stroke-width="1" stroke-opacity="0"></use></g></g><g><use xlink:href="#brM15oN0y" opacity="1" fill="#000000" fill-opacity="1"></use><g><use xlink:href="#brM15oN0y" opacity="1" fill-opacity="0" stroke="#000000" stroke-width="1" stroke-opacity="0"></use></g></g><g><use xlink:href="#bWOB1gici" opacity="1" fill="#000000" fill-opacity="0"></use><g><use xlink:href="#bWOB1gici" opacity="1" fill-opacity="0" stroke="#000000" stroke-width="1" stroke-opacity="0"></use></g></g><g><use xlink:href="#a2c1jnMK25" opacity="1" fill="#000000" fill-opacity="1"></use><g><use xlink:href="#a2c1jnMK25" opacity="1" fill-opacity="0" stroke="#000000" stroke-width="1" stroke-opacity="0"></use></g></g><g><use xlink:href="#a380IeChW" opacity="1" fill="#000000" fill-opacity="0"></use><g><use xlink:href="#a380IeChW" opacity="1" fill-opacity="0" stroke="#000000" stroke-width="1" stroke-opacity="0"></use></g></g><g><use xlink:href="#m21j9slU3Z" opacity="1" fill="#000000" fill-opacity="1"></use><g><use xlink:href="#m21j9slU3Z" opacity="1" fill-opacity="0" stroke="#000000" stroke-width="1" stroke-opacity="0"></use></g></g><g><use xlink:href="#f5Xbaa391" opacity="1" fill="#000000" fill-opacity="0"></use><g><use xlink:href="#f5Xbaa391" opacity="1" fill-opacity="0" stroke="#000000" stroke-width="1" stroke-opacity="0"></use></g></g><g><use xlink:href="#b1iO0blxtQ" opacity="1" fill="#000000" fill-opacity="1"></use><g><use xlink:href="#b1iO0blxtQ" opacity="1" fill-opacity="0" stroke="#000000" stroke-width="1" stroke-opacity="0"></use></g></g><g><use xlink:href="#b1YyDw7Y8p" opacity="1" fill="#000000" fill-opacity="0"></use><g><use xlink:href="#b1YyDw7Y8p" opacity="1" fill-opacity="0" stroke="#000000" stroke-width="1" stroke-opacity="0"></use></g></g><g><use xlink:href="#c5DN2oLEDy" opacity="1" fill="#000000" fill-opacity="1"></use><g><use xlink:href="#c5DN2oLEDy" opacity="1" fill-opacity="0" stroke="#000000" stroke-width="1" stroke-opacity="0"></use></g></g><g><use xlink:href="#e4WS79W67N" opacity="1" fill="#000000" fill-opacity="0"></use><g><use xlink:href="#e4WS79W67N" opacity="1" fill-opacity="0" stroke="#000000" stroke-width="1" stroke-opacity="0"></use></g></g><g><use xlink:href="#a1HFsCGGHL" opacity="1" fill="#000000" fill-opacity="1"></use><g><use xlink:href="#a1HFsCGGHL" opacity="1" fill-opacity="0" stroke="#000000" stroke-width="1" stroke-opacity="0"></use></g></g><g><use xlink:href="#f1UHiTHSw" opacity="1" fill="#000000" fill-opacity="0"></use><g><use xlink:href="#f1UHiTHSw" opacity="1" fill-opacity="0" stroke="#000000" stroke-width="1" stroke-opacity="0"></use></g></g></g></g></svg>