<svg viewBox="1 -30 511.99996 511" xmlns="http://www.w3.org/2000/svg"><path d="m265.132812 361.414062h-126.695312l7.21875-70.828124h88.023438v38.765624c0 16.875 13.035156 30.714844 29.585937 31.984376.617187.046874 1.238281.070312 1.867187.078124zm0 0" fill="#4c5b7c"/><path d="m233.679688 230.21875v60.367188h-193.957032c-16.328125 0-29.566406-13.238282-29.566406-29.5625v-30.804688zm0 0" fill="#4c5b7c"/><path d="m389.769531 40.0625v30.183594h-124.015625c-17.707031 0-32.074218 14.355468-32.074218 32.074218v127.898438h-223.679688v-190.15625c0-16.339844 13.234375-29.566406 29.574219-29.566406h320.621093c16.328126 0 29.574219 13.226562 29.574219 29.566406zm0 0" fill="#f7f7f7"/><path d="m435.402344 102.320312v26.984376h-201.722656v-26.984376c0-17.71875 14.367187-32.074218 32.074218-32.074218h137.566406c17.714844 0 32.082032 14.355468 32.082032 32.074218zm0 0" fill="#c2cee9"/><path d="m410.347656 361.035156-140.886718.378906h-4.328126c-.628906-.007812-1.25-.03125-1.867187-.078124-16.550781-1.269532-29.585937-15.109376-29.585937-31.984376v-14.109374h136.253906v13.71875c0 17.714843 14.359375 32.074218 32.074218 32.074218zm0 0" fill="#c2cee9"/><path d="m402.007812 129.304688c-17.714843 0-32.074218 14.367187-32.074218 32.085937v153.851563h-136.253906v-185.9375zm0 0" fill="#f7f7f7"/><path d="m502 315.242188v13.71875c0 17.714843-14.355469 32.074218-32.074219 32.074218h-67.917969c-17.714843 0-32.074218-14.359375-32.074218-32.074218v-13.71875zm0 0" fill="#ffa3bf"/><path d="m369.933594 164.960938h132.066406v150.28125h-132.066406zm0 0" fill="#f7f7f7"/><path d="m502 161.390625v3.570313h-132.066406v-3.570313c0-17.71875 14.359375-32.085937 32.074218-32.085937h67.917969c17.71875 0 32.074219 14.367187 32.074219 32.085937zm0 0" fill="#ffa3bf"/><path d="m64.980469 233.90625c.25.601562.558593 1.179688.917969 1.71875.359374.550781.78125 1.0625 1.238281 1.523438.460937.46875.980469.878906 1.519531 1.25.550781.359374 1.132812.667968 1.730469.917968.601562.25 1.230469.441406 1.871093.570313.648438.128906 1.300782.1875 1.960938.1875.648438 0 1.296875-.058594 1.949219-.1875.636719-.128907 1.269531-.320313 1.867187-.570313.601563-.25 1.179688-.558594 1.730469-.917968.539063-.371094 1.058594-.78125 1.519531-1.25.460938-.460938.878906-.972657 1.242188-1.523438.359375-.539062.667968-1.117188.917968-1.71875.25-.609375.441407-1.238281.570313-1.867188.128906-.652343.199219-1.300781.199219-1.960937 0-.648437-.070313-1.308594-.199219-1.949219s-.320313-1.269531-.570313-1.871094c-.25-.609374-.558593-1.1875-.917968-1.726562-.363282-.550781-.78125-1.0625-1.242188-1.519531-2.328125-2.320313-5.777344-3.390625-9.027344-2.730469-.640624.128906-1.269531.320312-1.871093.570312-.597657.25-1.179688.558594-1.730469.917969-.539062.359375-1.058594.78125-1.519531 1.242188-.457031.457031-.878907.96875-1.238281 1.519531-.359376.539062-.667969 1.117188-.917969 1.726562-.25.601563-.441407 1.230469-.570313 1.871094-.132812.640625-.203125 1.300782-.203125 1.949219 0 .660156.070313 1.308594.203125 1.960937.128906.628907.320313 1.257813.570313 1.867188zm0 0"/><path d="m340.089844 328.679688c-.539063-.359376-1.121094-.667969-1.730469-.917969-.597656-.25-1.230469-.441407-1.867187-.570313-3.25-.660156-6.699219.410156-9.019532 2.730469-.460937.457031-.878906.96875-1.25 1.519531-.359375.539063-.660156 1.117188-.910156 1.726563-.25.601562-.449219 1.230469-.570312 1.871093-.128907.640626-.199219 1.300782-.199219 1.949219 0 .648438.070312 1.308594.199219 1.960938.121093.640625.320312 1.257812.570312 1.867187.25.601563.558594 1.179688.921875 1.722656.359375.546876.777344 1.058594 1.238281 1.519532.460938.457031.96875.878906 1.519532 1.25.539062.359375 1.121093.667968 1.71875.917968.609374.25 1.242187.441407 1.878906.570313.640625.128906 1.300781.191406 1.953125.191406.648437 0 1.308593-.0625 1.949219-.191406.636718-.128906 1.269531-.320313 1.867187-.570313.609375-.25 1.191406-.558593 1.730469-.917968.550781-.371094 1.058594-.792969 1.519531-1.25.460937-.460938.878906-.972656 1.242187-1.519532.359376-.542968.667969-1.121093.917969-1.722656.25-.609375.449219-1.226562.570313-1.867187.128906-.652344.199218-1.3125.199218-1.960938 0-2.628906-1.070312-5.207031-2.929687-7.066406-.460937-.460937-.96875-.882813-1.519531-1.242187zm0 0"/><path d="m352.332031 90.242188h-35.582031c-5.523438 0-10 4.476562-10 10 0 5.519531 4.476562 9.996093 10 9.996093h35.582031c5.523438 0 10-4.476562 10-9.996093 0-5.523438-4.476562-10-10-10zm0 0"/><path d="m445.203125 333.167969c-.25-.609375-.5625-1.1875-.921875-1.726563-.359375-.550781-.777344-1.0625-1.238281-1.519531-.460938-.460937-.980469-.882813-1.519531-1.242187-.550782-.359376-1.132813-.667969-1.730469-.917969-.601563-.25-1.230469-.441407-1.871094-.570313-1.289063-.261718-2.617187-.261718-3.90625 0-.640625.128906-1.273437.320313-1.871094.570313-.601562.25-1.179687.558593-1.730469.917969-.539062.359374-1.050781.78125-1.519531 1.242187-1.859375 1.859375-2.929687 4.4375-2.929687 7.066406 0 .648438.070312 1.308594.199218 1.960938.132813.640625.320313 1.257812.570313 1.867187.25.601563.558594 1.179688.921875 1.722656.367188.546876.777344 1.058594 1.238281 1.519532.46875.457031.980469.878906 1.519531 1.25.550782.359375 1.128907.667968 1.730469.917968.597657.25 1.230469.441407 1.871094.570313.648437.128906 1.296875.191406 1.957031.191406.652344 0 1.300782-.0625 1.949219-.191406.640625-.128906 1.269531-.320313 1.871094-.570313.597656-.25 1.179687-.558593 1.730469-.917968.539062-.371094 1.046874-.792969 1.519531-1.25.460937-.460938.867187-.972656 1.238281-1.519532.359375-.542968.671875-1.121093.921875-1.722656.25-.609375.4375-1.226562.570313-1.867187.128906-.652344.1875-1.3125.1875-1.960938 0-.648437-.058594-1.308593-.1875-1.949219-.132813-.640624-.320313-1.269531-.570313-1.871093zm0 0"/><path d="m502 392.269531c-5.519531 0-9.996094 4.476563-9.996094 10v9.917969h-112.070312v-9.917969c0-5.523437-4.476563-10-10-10-5.519532 0-9.996094 4.476563-9.996094 10v9.917969h-119.980469v-9.917969c0-5.523437-4.476562-10-9.996093-10-5.523438 0-10 4.476563-10 10v9.917969h-199.804688v-9.917969c0-5.523437-4.476562-10-10-10-5.519531 0-9.996094 4.476563-9.996094 10v18.179688c-.097656.566406-.160156 1.140625-.160156 1.734375s.0625 1.167968.160156 1.734375v18.183593c0 5.519532 4.476563 9.996094 9.996094 9.996094 5.523438 0 10-4.476562 10-9.996094v-9.917968h199.804688v9.917968c0 5.519532 4.476562 9.996094 10 9.996094 5.519531 0 9.996093-4.476562 9.996093-9.996094v-9.917968h119.980469v9.917968c0 5.519532 4.476562 9.996094 9.996094 9.996094 5.523437 0 10-4.476562 10-9.996094v-9.917968h112.070312v9.917968c0 5.519532 4.476563 9.996094 9.996094 9.996094 5.523438 0 10-4.476562 10-9.996094v-39.832031c0-5.523437-4.476562-10-10-10zm0 0"/><path d="m39.5625 300.585938h95.074219l-5.21875 50.765624-22.796875.003907c-5.523438 0-9.996094 4.480469-9.996094 10 0 5.523437 4.476562 10 10 9.996093l31.730469-.003906c.03125 0 .066406.007813.097656.007813.039063 0 .074219-.007813.109375-.007813l124.464844-.015625c.894531.058594 1.8125.089844 2.753906.089844l138.550781-.390625h65.59375c23.199219 0 42.074219-18.871094 42.074219-42.070312 0 0 0-164 0-164.003907 0-.003906 0-3.566406 0-3.566406 0-23.203125-18.875-42.082031-42.074219-42.082031h-24.523437v-16.988282c0-23.199218-18.878906-42.070312-42.085938-42.070312h-3.546875v-20.1875c0-21.816406-17.753906-39.5625-39.574219-39.5625h-320.621093c-21.824219 0-39.574219 17.746094-39.574219 39.5625v220.960938c0 21.8125 17.746094 39.5625 39.5625 39.5625zm115.175781 0h68.941407v28.765624c0 8.011719 2.296874 15.554688 6.273437 21.988282l-80.433594.011718zm337.265625 4.65625h-112.070312v-130.285157h112.070312zm-132.066406-143.851563v143.851563h-116.261719v-165.9375h122.539063c-3.976563 6.425781-6.277344 13.992187-6.277344 22.085937zm-94.183594 190.035156c-.601562 0-1.191406-.019531-1.726562-.058593-11.410156-.878907-20.351563-10.546876-20.351563-22.019532v-4.109375h116.261719v3.722657c0 8.136718 2.328125 15.738281 6.34375 22.183593zm204.171875-.390625h-65.621093c-.007813 0-.019532 0-.027344 0h-2.269532c-12.171874 0-22.074218-9.902344-22.074218-22.074218v-3.722657h112.070312v3.722657c0 12.171874-9.902344 22.074218-22.078125 22.074218zm21.121094-196.074218h-110.15625c2.75-9.027344 11.136719-15.621094 21.042969-15.65625h33.46875.035156 34.488281c9.9375 0 18.363281 6.605468 21.121094 15.65625zm-65.640625-52.640626v16.988282h-23.398438c-.023437 0-.050781 0-.074218 0h-158.257813v-16.988282c0-12.171874 9.90625-22.074218 22.078125-22.074218h137.566406c12.175782 0 22.085938 9.902344 22.085938 22.074218zm-385.832031-81.824218h320.621093c10.796876 0 19.578126 8.777344 19.578126 19.566406v20.183594h-114.019532c-23.199218 0-42.074218 18.875-42.074218 42.074218v117.898438h-109.140626c-5.523437 0-10 4.476562-10 10 0 5.519531 4.476563 9.996094 10 9.996094h109.140626v40.375h-77.941407c-.015625 0-.027343 0-.042969 0h-106.132812c-10.789062 0-19.566406-8.777344-19.566406-19.566406v-20.808594h14.554687c5.523438 0 10-4.476563 10-9.996094 0-5.523438-4.476562-10-10-10h-14.554687v-180.15625c0-10.789062 8.78125-19.566406 19.578125-19.566406zm0 0"/></svg>